<?xml version="1.0" encoding="UTF-8" standalone="no"?>
<!-- Created with Inkscape (http://www.inkscape.org/) -->

<svg
   xmlns:dc="http://purl.org/dc/elements/1.1/"
   xmlns:cc="http://creativecommons.org/ns#"
   xmlns:rdf="http://www.w3.org/1999/02/22-rdf-syntax-ns#"
   xmlns:svg="http://www.w3.org/2000/svg"
   xmlns="http://www.w3.org/2000/svg"
   xmlns:sodipodi="http://sodipodi.sourceforge.net/DTD/sodipodi-0.dtd"
   xmlns:inkscape="http://www.inkscape.org/namespaces/inkscape"
   width="210mm"
   height="297mm"
   viewBox="0 0 210 297"
   version="1.1"
   id="svg8"
   inkscape:version="0.92.4 (5da689c313, 2019-01-14)"
   sodipodi:docname="NC.svg">
  <defs
     id="defs2" />
  <sodipodi:namedview
     id="base"
     pagecolor="#ffffff"
     bordercolor="#666666"
     borderopacity="1.0"
     inkscape:pageopacity="0.0"
     inkscape:pageshadow="2"
     inkscape:zoom="1.4"
     inkscape:cx="285.96145"
     inkscape:cy="508.25805"
     inkscape:document-units="mm"
     inkscape:current-layer="layer1"
     showgrid="false"
     inkscape:window-width="1920"
     inkscape:window-height="1001"
     inkscape:window-x="-9"
     inkscape:window-y="-9"
     inkscape:window-maximized="1" />
  <metadata
     id="metadata5">
    <rdf:RDF>
      <cc:Work
         rdf:about="">
        <dc:format>image/svg+xml</dc:format>
        <dc:type
           rdf:resource="http://purl.org/dc/dcmitype/StillImage" />
        <dc:title></dc:title>
      </cc:Work>
    </rdf:RDF>
  </metadata>
  <g
     inkscape:label="Layer 1"
     inkscape:groupmode="layer"
     id="layer1">
    <path
       style="fill:#010101;stroke-width:0.35277778"
       d="m -71.134946,-79.620066 c 0,-0.60981 0.29425,-0.76203 1.85208,-0.9581 9.49161,-1.19465 14.08799,-5.95975 16.51304,-17.11922 0.2961,-1.36256 0.49846,-10.921034 0.67965,-32.102774 0.27929,-32.64977 0.3531,-33.92631 2.29647,-39.7155 1.82406,-5.43379 5.27817,-9.20474 11.02718,-12.03868 1.89119,-0.93224 3.95446,-1.87889 4.58505,-2.10365 1.24426,-0.4435 1.536,-1.41588 0.52917,-1.76371 -9.17234,-3.16873 -13.86645,-7.2471 -16.1414,-14.02407 -1.93809,-5.77346 -2.01386,-7.08381 -2.28638,-39.53912 -0.2238,-26.65274 -0.31993,-30.27918 -0.8648,-32.62251 -2.44603,-10.51958 -6.54422,-14.94711 -14.75048,-15.93588 -3.06098,-0.36881 -3.43958,-0.49177 -3.43958,-1.1171 0,-0.67819 0.16302,-0.69449 4.67752,-0.46793 14.30451,0.71789 22.60091,4.0373 25.92408,10.37232 1.66296,3.17013 2.76626,7.02671 3.65716,12.7836 0.26852,1.73515 0.50117,12.90621 0.67591,32.45556 0.25619,28.65994 0.34967,30.99069 1.40162,34.94429 1.16008,4.36002 5.10226,9.21756 9.129,11.24873 1.80791,0.91194 5.81249,2.09959 7.18679,2.13141 0.14552,0.004 0.26406,0.28394 0.26343,0.62349 -10e-4,0.49187 -0.59253,0.73295 -2.91042,1.18602 -3.68928,0.72114 -5.83464,1.73979 -8.18162,3.8848 -2.83108,2.58745 -5.028,7.28923 -6.24334,13.36182 -0.2512,1.25517 -0.47684,12.52813 -0.63903,31.92638 -0.27234,32.57337 -0.28416,32.76869 -2.35932,38.981954 -1.25122,3.74627 -2.73081,6.17348 -5.40196,8.86168 -4.67191,4.70175 -10.68588,6.65479 -22.25532,7.22744 -4.81241,0.2382 -4.9245,0.22725 -4.9245,-0.48125 z"
       id="path891" />
    <path
       inkscape:connector-curvature="0"
       id="path29"
       d="m 69.315479,181.0186 c 0.106913,-0.15629 0.19621,-12.56279 0.198438,-27.57 0.0034,-23.03098 -0.05354,-27.33363 -0.365294,-27.59236 -0.254693,-0.21137 -1.948275,-0.29701 -5.455755,-0.27586 -2.797526,0.0169 -5.194989,-0.0779 -5.327697,-0.21062 -0.132707,-0.1327 -0.207696,-1.71979 -0.16664,-3.52684 l 0.07465,-3.28557 h 37.967702 37.967707 l 0.0747,3.28557 c 0.041,1.80705 -0.0339,3.39414 -0.16664,3.52684 -0.13271,0.13271 -2.53017,0.22749 -5.3277,0.21062 -3.50748,-0.0212 -5.20106,0.0645 -5.45575,0.27586 -0.31176,0.25873 -0.36872,4.56138 -0.3653,27.59236 0.002,15.00721 0.0915,27.41371 0.19844,27.57 m -40.621698,0 c 0.106921,-0.15629 0.196211,-12.55356 0.198441,-27.54948 0.003,-20.85813 -0.0706,-27.33992 -0.31345,-27.58281 -0.44979,-0.44979 -11.615206,-0.44979 -12.064998,0 -0.242889,0.24289 -0.316548,6.72468 -0.313448,27.58281 0.0022,14.99592 0.09153,27.39319 0.198437,27.54948 m 25.524188,0 c 0.10691,-0.15629 0.196211,-12.55356 0.19844,-27.54948 0.003,-20.85813 -0.0706,-27.33992 -0.31345,-27.58281 -0.449789,-0.44979 -11.615209,-0.44979 -12.065,0 -0.24289,0.24289 -0.316549,6.72468 -0.31345,27.58281 0.002,14.99592 0.0915,27.39319 0.198441,27.54948 m 25.524187,0 c 0.10691,-0.15629 0.19621,-12.55356 0.19844,-27.54948 0.003,-20.85813 -0.0706,-27.33992 -0.31345,-27.58281 -0.4498,-0.44979 -11.615207,-0.44979 -12.064998,0 -0.242889,0.24289 -0.316549,6.72468 -0.313449,27.58281 0.002,14.99592 0.0915,27.39319 0.198429,27.54948 m 25.524188,0 c 0.10692,-0.15629 0.19621,-12.55356 0.19844,-27.54948 0.003,-20.85813 -0.0706,-27.33992 -0.31345,-27.58281 -0.44979,-0.44979 -11.61521,-0.44979 -12.065,0 -0.24289,0.24289 -0.31654,6.72468 -0.31345,27.58281 0.002,14.99592 0.0915,27.39319 0.19844,27.54948"
       style="fill:#000000;fill-opacity:1;stroke:none;stroke-width:0.26458335;stroke-opacity:1"
       sodipodi:nodetypes="cscccsccccccccccccccccccccccccccccccscc"
       inkscape:export-xdpi="100.12"
       inkscape:export-ydpi="100.12" />
    <path
       inkscape:connector-curvature="0"
       style="fill:#a51ba5;stroke-width:1.5;stroke:#a51ba5;stroke-opacity:1;stroke-miterlimit:4;stroke-dasharray:none"
       d="m 72.306921,191.86335 c 2.446461,-1.13922 3.681726,-3.2094 3.511376,-5.8847 -0.141104,-2.21602 -1.164097,-3.86398 -3.060797,-4.93069 -3.967639,-2.23141 -8.720212,0.36923 -9.010664,4.93069 -0.17035,2.6753 1.064916,4.74548 3.511377,5.8847 1.716557,0.79933 3.332151,0.79933 5.048708,0 z"
       id="path55"
       inkscape:export-xdpi="100.12"
       inkscape:export-ydpi="100.12" />
    <path
       inkscape:connector-curvature="0"
       style="fill:#a51ba5;stroke-width:1.5;stroke-miterlimit:4;stroke-dasharray:none;stroke:#a51ba5;stroke-opacity:1"
       d="m 85.536088,191.86335 c 2.44646,-1.13922 3.68173,-3.2094 3.51138,-5.8847 -0.14111,-2.21602 -1.1641,-3.86398 -3.0608,-4.93069 -3.96764,-2.23141 -8.720213,0.36923 -9.010665,4.93069 -0.170349,2.6753 1.064916,4.74548 3.511375,5.8847 1.71656,0.79933 3.33215,0.79933 5.04871,0 z"
       id="path53"
       inkscape:export-xdpi="100.12"
       inkscape:export-ydpi="100.12" />
    <path
       inkscape:connector-curvature="0"
       style="fill:#a51ba5;stroke-width:1.5;stroke-miterlimit:4;stroke-dasharray:none;stroke:#a51ba5;stroke-opacity:1"
       d="m 98.765258,191.86335 c 2.446462,-1.13922 3.681722,-3.2094 3.511372,-5.8847 -0.1411,-2.21602 -1.16409,-3.86398 -3.060793,-4.93069 -3.967639,-2.23141 -8.720219,0.36923 -9.010669,4.93069 -0.17035,2.6753 1.06492,4.74548 3.51138,5.8847 1.71656,0.79933 3.33215,0.79933 5.04871,0 z"
       id="path51"
       inkscape:export-xdpi="100.12"
       inkscape:export-ydpi="100.12" />
    <path
       inkscape:connector-curvature="0"
       style="fill:#a51ba5;stroke-width:1.5;stroke-miterlimit:4;stroke-dasharray:none;stroke:#a51ba5;stroke-opacity:1"
       d="m 111.99442,191.86335 c 2.44646,-1.13922 3.68173,-3.2094 3.51138,-5.8847 -0.1411,-2.21602 -1.1641,-3.86398 -3.0608,-4.93069 -3.96764,-2.23141 -8.72021,0.36923 -9.01066,4.93069 -0.17035,2.6753 1.06492,4.74548 3.51137,5.8847 1.71656,0.79933 3.33216,0.79933 5.04871,0 z"
       id="path49"
       inkscape:export-xdpi="100.12"
       inkscape:export-ydpi="100.12" />
    <path
       inkscape:connector-curvature="0"
       style="fill:#a51ba5;stroke-width:1.5;stroke-miterlimit:4;stroke-dasharray:none;stroke:#a51ba5;stroke-opacity:1"
       d="m 125.22359,191.86335 c 2.44646,-1.13922 3.68173,-3.2094 3.51138,-5.8847 -0.14111,-2.21602 -1.1641,-3.86398 -3.0608,-4.93069 -3.96764,-2.23141 -8.72021,0.36923 -9.01066,4.93069 -0.17035,2.6753 1.06491,4.74548 3.51137,5.8847 1.71656,0.79933 3.33215,0.79933 5.04871,0 z"
       id="path23"
       inkscape:export-xdpi="100.12"
       inkscape:export-ydpi="100.12" />
    <path
       style="fill:#010101;stroke-width:0.02397658"
       d="m 97.424432,195.45492 c -0.05176,0.54839 -0.219311,1.0329 -0.438672,1.26726 -0.203165,0.21724 -0.536991,0.34832 -1.115846,0.4377 -0.117984,0.018 -0.877169,0.0354 -2.20584,0.0467 -1.947889,0.0171 -2.10629,0.023 -2.374991,0.0951 -0.296324,0.0785 -0.626464,0.34698 -0.764522,0.62054 -0.062,0.12245 -0.142707,0.395 -0.144872,0.48855 -2.56e-4,0.0136 -0.01995,0.0173 -0.04357,0.0173 -0.03509,0 -0.0488,-0.0342 -0.07351,-0.17964 -0.07558,-0.44998 -0.351152,-0.75095 -0.830838,-0.90795 -0.365727,-0.11937 -0.327835,-0.11747 -2.49305,-0.13466 -2.213433,-0.0165 -2.258476,-0.0197 -2.671378,-0.15869 -0.257693,-0.0869 -0.422024,-0.18673 -0.6023,-0.36777 -0.323119,-0.32431 -0.454275,-0.72659 -0.493194,-1.51287 -0.0162,-0.32721 -0.01548,-0.33477 0.0326,-0.33477 0.0415,0 0.05193,0.0186 0.06496,0.12547 0.08114,0.64518 0.405051,0.95756 1.163499,1.12223 0.09261,0.0198 0.742256,0.0353 2.181859,0.0466 2.219071,0.0181 2.305803,0.0234 2.699272,0.15595 0.369318,0.12381 0.625605,0.35879 0.818213,0.74939 0.06339,0.12818 0.127735,0.26892 0.14296,0.31177 0.03023,0.0854 0.09626,0.10532 0.119849,0.0365 0.216224,-0.6259 0.490688,-0.94206 0.95315,-1.09709 0.392391,-0.13207 0.481437,-0.13721 2.687279,-0.1554 1.811445,-0.0137 2.057899,-0.0207 2.217182,-0.0573 0.71496,-0.16617 1.015874,-0.4446 1.083076,-1.00253 0.02462,-0.20058 0.03413,-0.23366 0.07224,-0.23366 0.03934,0 0.0435,0.0199 0.04075,0.19795 -0.0015,0.10887 -0.01258,0.30007 -0.0246,0.42538 z"
       id="path917"
       inkscape:connector-curvature="0"
       inkscape:export-xdpi="100.12"
       inkscape:export-ydpi="100.12" />
    <text
       xml:space="preserve"
       style="font-style:normal;font-weight:normal;font-size:7.05555534px;line-height:1.25;font-family:sans-serif;letter-spacing:0px;word-spacing:0px;fill:#000000;fill-opacity:1;stroke:none;stroke-width:0.26458332"
       x="87.982658"
       y="204.02795"
       id="text921"
       inkscape:export-xdpi="100.12"
       inkscape:export-ydpi="100.12"><tspan
         sodipodi:role="line"
         id="tspan919"
         x="87.982658"
         y="204.02795"
         style="font-size:7.05555534px;stroke-width:0.26458332">D</tspan></text>
    <path
       style="fill:#010101;stroke-width:0.02397658"
       d="m 125.50069,195.34186 c -0.0518,0.54839 -0.21931,1.0329 -0.43867,1.26726 -0.20317,0.21724 -0.53699,0.34832 -1.11585,0.4377 -0.11798,0.018 -0.87717,0.0354 -2.20584,0.0467 -1.94789,0.0171 -2.10629,0.023 -2.37499,0.0951 -0.29632,0.0785 -0.62646,0.34698 -0.76452,0.62054 -0.062,0.12245 -0.14271,0.395 -0.14487,0.48855 -2.6e-4,0.0136 -0.0199,0.0173 -0.0436,0.0173 -0.0351,0 -0.0488,-0.0342 -0.0735,-0.17964 -0.0756,-0.44998 -0.35115,-0.75095 -0.83084,-0.90795 -0.36573,-0.11937 -0.32784,-0.11747 -2.49305,-0.13466 -2.21343,-0.0165 -2.25848,-0.0197 -2.67138,-0.15869 -0.25769,-0.0869 -0.42202,-0.18673 -0.6023,-0.36777 -0.32312,-0.32431 -0.45427,-0.72659 -0.49319,-1.51287 -0.0162,-0.32721 -0.0155,-0.33477 0.0326,-0.33477 0.0415,0 0.0519,0.0186 0.065,0.12547 0.0811,0.64518 0.40505,0.95756 1.1635,1.12223 0.0926,0.0198 0.74225,0.0353 2.18186,0.0466 2.21907,0.0181 2.3058,0.0234 2.69927,0.15595 0.36932,0.12381 0.6256,0.35879 0.81821,0.74939 0.0634,0.12818 0.12774,0.26892 0.14296,0.31177 0.0302,0.0854 0.0963,0.10532 0.11985,0.0365 0.21622,-0.6259 0.49069,-0.94206 0.95315,-1.09709 0.39239,-0.13207 0.48144,-0.13721 2.68728,-0.1554 1.81144,-0.0137 2.0579,-0.0207 2.21718,-0.0573 0.71496,-0.16617 1.01587,-0.4446 1.08308,-1.00253 0.0246,-0.20058 0.0341,-0.23366 0.0722,-0.23366 0.0393,0 0.0435,0.0199 0.0408,0.19795 -0.002,0.10887 -0.0126,0.30007 -0.0246,0.42538 z"
       id="path917-9-1"
       inkscape:connector-curvature="0"
       inkscape:export-xdpi="100.12"
       inkscape:export-ydpi="100.12" />
    <text
       xml:space="preserve"
       style="font-style:normal;font-weight:normal;font-size:7.05555534px;line-height:1.25;font-family:sans-serif;letter-spacing:0px;word-spacing:0px;fill:#000000;fill-opacity:1;stroke:none;stroke-width:0.26458332"
       x="116.29515"
       y="203.9149"
       id="text921-7-2"
       inkscape:export-xdpi="100.12"
       inkscape:export-ydpi="100.12"><tspan
         sodipodi:role="line"
         id="tspan919-4-0"
         x="116.29515"
         y="203.9149"
         style="font-size:7.05555534px;stroke-width:0.26458332">D</tspan></text>
  </g>
</svg>
